<svg viewBox="0 0 1120 780" xmlns="http://www.w3.org/2000/svg" font-family="Inter, Segoe UI, Helvetica, Arial, sans-serif">
<rect x="0" y="0" width="1120" height="780" rx="18" fill="#ffffff"/>
<text x="48" y="60" font-size="34" font-weight="700" fill="#20232a">DAVE — breadboard wiring</text>
<text x="48" y="90" font-size="17" fill="#6b7280">ESP32-DevKitC V4  ·  WS2812B strip  ·  330 Ω on data  ·  1000 µF across 5V/GND  ·  no soldering</text>
<rect x="48" y="150" width="620" height="470" rx="12" fill="#f3eee3" stroke="#d9cfba" stroke-width="2"/>
<line x1="66" y1="172" x2="650" y2="172" stroke="#e5484d" stroke-width="2.5" opacity="0.55"/>
<text x="56" y="177" font-size="16" font-weight="700" fill="#e5484d">+</text>
<text x="660" y="177" font-size="16" font-weight="700" fill="#e5484d" text-anchor="end">+</text>
<circle cx="92.0" cy="188.0" r="3.4" fill="#c7bda6"/>
<circle cx="115.1" cy="188.0" r="3.4" fill="#c7bda6"/>
<circle cx="138.3" cy="188.0" r="3.4" fill="#c7bda6"/>
<circle cx="161.4" cy="188.0" r="3.4" fill="#c7bda6"/>
<circle cx="184.5" cy="188.0" r="3.4" fill="#c7bda6"/>
<circle cx="207.7" cy="188.0" r="3.4" fill="#c7bda6"/>
<circle cx="230.8" cy="188.0" r="3.4" fill="#c7bda6"/>
<circle cx="253.9" cy="188.0" r="3.4" fill="#c7bda6"/>
<circle cx="277.0" cy="188.0" r="3.4" fill="#c7bda6"/>
<circle cx="300.2" cy="188.0" r="3.4" fill="#c7bda6"/>
<circle cx="323.3" cy="188.0" r="3.4" fill="#c7bda6"/>
<circle cx="346.4" cy="188.0" r="3.4" fill="#c7bda6"/>
<circle cx="369.6" cy="188.0" r="3.4" fill="#c7bda6"/>
<circle cx="392.7" cy="188.0" r="3.4" fill="#c7bda6"/>
<circle cx="415.8" cy="188.0" r="3.4" fill="#c7bda6"/>
<circle cx="439.0" cy="188.0" r="3.4" fill="#c7bda6"/>
<circle cx="462.1" cy="188.0" r="3.4" fill="#c7bda6"/>
<circle cx="485.2" cy="188.0" r="3.4" fill="#c7bda6"/>
<circle cx="508.3" cy="188.0" r="3.4" fill="#c7bda6"/>
<circle cx="531.5" cy="188.0" r="3.4" fill="#c7bda6"/>
<circle cx="554.6" cy="188.0" r="3.4" fill="#c7bda6"/>
<circle cx="577.7" cy="188.0" r="3.4" fill="#c7bda6"/>
<circle cx="600.9" cy="188.0" r="3.4" fill="#c7bda6"/>
<circle cx="624.0" cy="188.0" r="3.4" fill="#c7bda6"/>
<line x1="66" y1="208" x2="650" y2="208" stroke="#2b2f36" stroke-width="2.5" opacity="0.55"/>
<text x="56" y="213" font-size="16" font-weight="700" fill="#2b2f36">−</text>
<text x="660" y="213" font-size="16" font-weight="700" fill="#2b2f36" text-anchor="end">−</text>
<circle cx="92.0" cy="224.0" r="3.4" fill="#c7bda6"/>
<circle cx="115.1" cy="224.0" r="3.4" fill="#c7bda6"/>
<circle cx="138.3" cy="224.0" r="3.4" fill="#c7bda6"/>
<circle cx="161.4" cy="224.0" r="3.4" fill="#c7bda6"/>
<circle cx="184.5" cy="224.0" r="3.4" fill="#c7bda6"/>
<circle cx="207.7" cy="224.0" r="3.4" fill="#c7bda6"/>
<circle cx="230.8" cy="224.0" r="3.4" fill="#c7bda6"/>
<circle cx="253.9" cy="224.0" r="3.4" fill="#c7bda6"/>
<circle cx="277.0" cy="224.0" r="3.4" fill="#c7bda6"/>
<circle cx="300.2" cy="224.0" r="3.4" fill="#c7bda6"/>
<circle cx="323.3" cy="224.0" r="3.4" fill="#c7bda6"/>
<circle cx="346.4" cy="224.0" r="3.4" fill="#c7bda6"/>
<circle cx="369.6" cy="224.0" r="3.4" fill="#c7bda6"/>
<circle cx="392.7" cy="224.0" r="3.4" fill="#c7bda6"/>
<circle cx="415.8" cy="224.0" r="3.4" fill="#c7bda6"/>
<circle cx="439.0" cy="224.0" r="3.4" fill="#c7bda6"/>
<circle cx="462.1" cy="224.0" r="3.4" fill="#c7bda6"/>
<circle cx="485.2" cy="224.0" r="3.4" fill="#c7bda6"/>
<circle cx="508.3" cy="224.0" r="3.4" fill="#c7bda6"/>
<circle cx="531.5" cy="224.0" r="3.4" fill="#c7bda6"/>
<circle cx="554.6" cy="224.0" r="3.4" fill="#c7bda6"/>
<circle cx="577.7" cy="224.0" r="3.4" fill="#c7bda6"/>
<circle cx="600.9" cy="224.0" r="3.4" fill="#c7bda6"/>
<circle cx="624.0" cy="224.0" r="3.4" fill="#c7bda6"/>
<circle cx="92.0" cy="262.0" r="3.4" fill="#c7bda6"/>
<circle cx="115.1" cy="262.0" r="3.4" fill="#c7bda6"/>
<circle cx="138.3" cy="262.0" r="3.4" fill="#c7bda6"/>
<circle cx="161.4" cy="262.0" r="3.4" fill="#c7bda6"/>
<circle cx="184.5" cy="262.0" r="3.4" fill="#c7bda6"/>
<circle cx="207.7" cy="262.0" r="3.4" fill="#c7bda6"/>
<circle cx="230.8" cy="262.0" r="3.4" fill="#c7bda6"/>
<circle cx="253.9" cy="262.0" r="3.4" fill="#c7bda6"/>
<circle cx="277.0" cy="262.0" r="3.4" fill="#c7bda6"/>
<circle cx="300.2" cy="262.0" r="3.4" fill="#c7bda6"/>
<circle cx="323.3" cy="262.0" r="3.4" fill="#c7bda6"/>
<circle cx="346.4" cy="262.0" r="3.4" fill="#c7bda6"/>
<circle cx="369.6" cy="262.0" r="3.4" fill="#c7bda6"/>
<circle cx="392.7" cy="262.0" r="3.4" fill="#c7bda6"/>
<circle cx="415.8" cy="262.0" r="3.4" fill="#c7bda6"/>
<circle cx="439.0" cy="262.0" r="3.4" fill="#c7bda6"/>
<circle cx="462.1" cy="262.0" r="3.4" fill="#c7bda6"/>
<circle cx="485.2" cy="262.0" r="3.4" fill="#c7bda6"/>
<circle cx="508.3" cy="262.0" r="3.4" fill="#c7bda6"/>
<circle cx="531.5" cy="262.0" r="3.4" fill="#c7bda6"/>
<circle cx="554.6" cy="262.0" r="3.4" fill="#c7bda6"/>
<circle cx="577.7" cy="262.0" r="3.4" fill="#c7bda6"/>
<circle cx="600.9" cy="262.0" r="3.4" fill="#c7bda6"/>
<circle cx="624.0" cy="262.0" r="3.4" fill="#c7bda6"/>
<circle cx="92.0" cy="284.0" r="3.4" fill="#c7bda6"/>
<circle cx="115.1" cy="284.0" r="3.4" fill="#c7bda6"/>
<circle cx="138.3" cy="284.0" r="3.4" fill="#c7bda6"/>
<circle cx="161.4" cy="284.0" r="3.4" fill="#c7bda6"/>
<circle cx="184.5" cy="284.0" r="3.4" fill="#c7bda6"/>
<circle cx="207.7" cy="284.0" r="3.4" fill="#c7bda6"/>
<circle cx="230.8" cy="284.0" r="3.4" fill="#c7bda6"/>
<circle cx="253.9" cy="284.0" r="3.4" fill="#c7bda6"/>
<circle cx="277.0" cy="284.0" r="3.4" fill="#c7bda6"/>
<circle cx="300.2" cy="284.0" r="3.4" fill="#c7bda6"/>
<circle cx="323.3" cy="284.0" r="3.4" fill="#c7bda6"/>
<circle cx="346.4" cy="284.0" r="3.4" fill="#c7bda6"/>
<circle cx="369.6" cy="284.0" r="3.4" fill="#c7bda6"/>
<circle cx="392.7" cy="284.0" r="3.4" fill="#c7bda6"/>
<circle cx="415.8" cy="284.0" r="3.4" fill="#c7bda6"/>
<circle cx="439.0" cy="284.0" r="3.4" fill="#c7bda6"/>
<circle cx="462.1" cy="284.0" r="3.4" fill="#c7bda6"/>
<circle cx="485.2" cy="284.0" r="3.4" fill="#c7bda6"/>
<circle cx="508.3" cy="284.0" r="3.4" fill="#c7bda6"/>
<circle cx="531.5" cy="284.0" r="3.4" fill="#c7bda6"/>
<circle cx="554.6" cy="284.0" r="3.4" fill="#c7bda6"/>
<circle cx="577.7" cy="284.0" r="3.4" fill="#c7bda6"/>
<circle cx="600.9" cy="284.0" r="3.4" fill="#c7bda6"/>
<circle cx="624.0" cy="284.0" r="3.4" fill="#c7bda6"/>
<circle cx="92.0" cy="306.0" r="3.4" fill="#c7bda6"/>
<circle cx="115.1" cy="306.0" r="3.4" fill="#c7bda6"/>
<circle cx="138.3" cy="306.0" r="3.4" fill="#c7bda6"/>
<circle cx="161.4" cy="306.0" r="3.4" fill="#c7bda6"/>
<circle cx="184.5" cy="306.0" r="3.4" fill="#c7bda6"/>
<circle cx="207.7" cy="306.0" r="3.4" fill="#c7bda6"/>
<circle cx="230.8" cy="306.0" r="3.4" fill="#c7bda6"/>
<circle cx="253.9" cy="306.0" r="3.4" fill="#c7bda6"/>
<circle cx="277.0" cy="306.0" r="3.4" fill="#c7bda6"/>
<circle cx="300.2" cy="306.0" r="3.4" fill="#c7bda6"/>
<circle cx="323.3" cy="306.0" r="3.4" fill="#c7bda6"/>
<circle cx="346.4" cy="306.0" r="3.4" fill="#c7bda6"/>
<circle cx="369.6" cy="306.0" r="3.4" fill="#c7bda6"/>
<circle cx="392.7" cy="306.0" r="3.4" fill="#c7bda6"/>
<circle cx="415.8" cy="306.0" r="3.4" fill="#c7bda6"/>
<circle cx="439.0" cy="306.0" r="3.4" fill="#c7bda6"/>
<circle cx="462.1" cy="306.0" r="3.4" fill="#c7bda6"/>
<circle cx="485.2" cy="306.0" r="3.4" fill="#c7bda6"/>
<circle cx="508.3" cy="306.0" r="3.4" fill="#c7bda6"/>
<circle cx="531.5" cy="306.0" r="3.4" fill="#c7bda6"/>
<circle cx="554.6" cy="306.0" r="3.4" fill="#c7bda6"/>
<circle cx="577.7" cy="306.0" r="3.4" fill="#c7bda6"/>
<circle cx="600.9" cy="306.0" r="3.4" fill="#c7bda6"/>
<circle cx="624.0" cy="306.0" r="3.4" fill="#c7bda6"/>
<circle cx="92.0" cy="328.0" r="3.4" fill="#c7bda6"/>
<circle cx="115.1" cy="328.0" r="3.4" fill="#c7bda6"/>
<circle cx="138.3" cy="328.0" r="3.4" fill="#c7bda6"/>
<circle cx="161.4" cy="328.0" r="3.4" fill="#c7bda6"/>
<circle cx="184.5" cy="328.0" r="3.4" fill="#c7bda6"/>
<circle cx="207.7" cy="328.0" r="3.4" fill="#c7bda6"/>
<circle cx="230.8" cy="328.0" r="3.4" fill="#c7bda6"/>
<circle cx="253.9" cy="328.0" r="3.4" fill="#c7bda6"/>
<circle cx="277.0" cy="328.0" r="3.4" fill="#c7bda6"/>
<circle cx="300.2" cy="328.0" r="3.4" fill="#c7bda6"/>
<circle cx="323.3" cy="328.0" r="3.4" fill="#c7bda6"/>
<circle cx="346.4" cy="328.0" r="3.4" fill="#c7bda6"/>
<circle cx="369.6" cy="328.0" r="3.4" fill="#c7bda6"/>
<circle cx="392.7" cy="328.0" r="3.4" fill="#c7bda6"/>
<circle cx="415.8" cy="328.0" r="3.4" fill="#c7bda6"/>
<circle cx="439.0" cy="328.0" r="3.4" fill="#c7bda6"/>
<circle cx="462.1" cy="328.0" r="3.4" fill="#c7bda6"/>
<circle cx="485.2" cy="328.0" r="3.4" fill="#c7bda6"/>
<circle cx="508.3" cy="328.0" r="3.4" fill="#c7bda6"/>
<circle cx="531.5" cy="328.0" r="3.4" fill="#c7bda6"/>
<circle cx="554.6" cy="328.0" r="3.4" fill="#c7bda6"/>
<circle cx="577.7" cy="328.0" r="3.4" fill="#c7bda6"/>
<circle cx="600.9" cy="328.0" r="3.4" fill="#c7bda6"/>
<circle cx="624.0" cy="328.0" r="3.4" fill="#c7bda6"/>
<circle cx="92.0" cy="350.0" r="3.4" fill="#c7bda6"/>
<circle cx="115.1" cy="350.0" r="3.4" fill="#c7bda6"/>
<circle cx="138.3" cy="350.0" r="3.4" fill="#c7bda6"/>
<circle cx="161.4" cy="350.0" r="3.4" fill="#c7bda6"/>
<circle cx="184.5" cy="350.0" r="3.4" fill="#c7bda6"/>
<circle cx="207.7" cy="350.0" r="3.4" fill="#c7bda6"/>
<circle cx="230.8" cy="350.0" r="3.4" fill="#c7bda6"/>
<circle cx="253.9" cy="350.0" r="3.4" fill="#c7bda6"/>
<circle cx="277.0" cy="350.0" r="3.4" fill="#c7bda6"/>
<circle cx="300.2" cy="350.0" r="3.4" fill="#c7bda6"/>
<circle cx="323.3" cy="350.0" r="3.4" fill="#c7bda6"/>
<circle cx="346.4" cy="350.0" r="3.4" fill="#c7bda6"/>
<circle cx="369.6" cy="350.0" r="3.4" fill="#c7bda6"/>
<circle cx="392.7" cy="350.0" r="3.4" fill="#c7bda6"/>
<circle cx="415.8" cy="350.0" r="3.4" fill="#c7bda6"/>
<circle cx="439.0" cy="350.0" r="3.4" fill="#c7bda6"/>
<circle cx="462.1" cy="350.0" r="3.4" fill="#c7bda6"/>
<circle cx="485.2" cy="350.0" r="3.4" fill="#c7bda6"/>
<circle cx="508.3" cy="350.0" r="3.4" fill="#c7bda6"/>
<circle cx="531.5" cy="350.0" r="3.4" fill="#c7bda6"/>
<circle cx="554.6" cy="350.0" r="3.4" fill="#c7bda6"/>
<circle cx="577.7" cy="350.0" r="3.4" fill="#c7bda6"/>
<circle cx="600.9" cy="350.0" r="3.4" fill="#c7bda6"/>
<circle cx="624.0" cy="350.0" r="3.4" fill="#c7bda6"/>
<line x1="66" y1="380" x2="650" y2="380" stroke="#d9cfba" stroke-width="6"/>
<circle cx="92.0" cy="404.0" r="3.4" fill="#c7bda6"/>
<circle cx="115.1" cy="404.0" r="3.4" fill="#c7bda6"/>
<circle cx="138.3" cy="404.0" r="3.4" fill="#c7bda6"/>
<circle cx="161.4" cy="404.0" r="3.4" fill="#c7bda6"/>
<circle cx="184.5" cy="404.0" r="3.4" fill="#c7bda6"/>
<circle cx="207.7" cy="404.0" r="3.4" fill="#c7bda6"/>
<circle cx="230.8" cy="404.0" r="3.4" fill="#c7bda6"/>
<circle cx="253.9" cy="404.0" r="3.4" fill="#c7bda6"/>
<circle cx="277.0" cy="404.0" r="3.4" fill="#c7bda6"/>
<circle cx="300.2" cy="404.0" r="3.4" fill="#c7bda6"/>
<circle cx="323.3" cy="404.0" r="3.4" fill="#c7bda6"/>
<circle cx="346.4" cy="404.0" r="3.4" fill="#c7bda6"/>
<circle cx="369.6" cy="404.0" r="3.4" fill="#c7bda6"/>
<circle cx="392.7" cy="404.0" r="3.4" fill="#c7bda6"/>
<circle cx="415.8" cy="404.0" r="3.4" fill="#c7bda6"/>
<circle cx="439.0" cy="404.0" r="3.4" fill="#c7bda6"/>
<circle cx="462.1" cy="404.0" r="3.4" fill="#c7bda6"/>
<circle cx="485.2" cy="404.0" r="3.4" fill="#c7bda6"/>
<circle cx="508.3" cy="404.0" r="3.4" fill="#c7bda6"/>
<circle cx="531.5" cy="404.0" r="3.4" fill="#c7bda6"/>
<circle cx="554.6" cy="404.0" r="3.4" fill="#c7bda6"/>
<circle cx="577.7" cy="404.0" r="3.4" fill="#c7bda6"/>
<circle cx="600.9" cy="404.0" r="3.4" fill="#c7bda6"/>
<circle cx="624.0" cy="404.0" r="3.4" fill="#c7bda6"/>
<circle cx="92.0" cy="426.0" r="3.4" fill="#c7bda6"/>
<circle cx="115.1" cy="426.0" r="3.4" fill="#c7bda6"/>
<circle cx="138.3" cy="426.0" r="3.4" fill="#c7bda6"/>
<circle cx="161.4" cy="426.0" r="3.4" fill="#c7bda6"/>
<circle cx="184.5" cy="426.0" r="3.4" fill="#c7bda6"/>
<circle cx="207.7" cy="426.0" r="3.4" fill="#c7bda6"/>
<circle cx="230.8" cy="426.0" r="3.4" fill="#c7bda6"/>
<circle cx="253.9" cy="426.0" r="3.4" fill="#c7bda6"/>
<circle cx="277.0" cy="426.0" r="3.4" fill="#c7bda6"/>
<circle cx="300.2" cy="426.0" r="3.4" fill="#c7bda6"/>
<circle cx="323.3" cy="426.0" r="3.4" fill="#c7bda6"/>
<circle cx="346.4" cy="426.0" r="3.4" fill="#c7bda6"/>
<circle cx="369.6" cy="426.0" r="3.4" fill="#c7bda6"/>
<circle cx="392.7" cy="426.0" r="3.4" fill="#c7bda6"/>
<circle cx="415.8" cy="426.0" r="3.4" fill="#c7bda6"/>
<circle cx="439.0" cy="426.0" r="3.4" fill="#c7bda6"/>
<circle cx="462.1" cy="426.0" r="3.4" fill="#c7bda6"/>
<circle cx="485.2" cy="426.0" r="3.4" fill="#c7bda6"/>
<circle cx="508.3" cy="426.0" r="3.4" fill="#c7bda6"/>
<circle cx="531.5" cy="426.0" r="3.4" fill="#c7bda6"/>
<circle cx="554.6" cy="426.0" r="3.4" fill="#c7bda6"/>
<circle cx="577.7" cy="426.0" r="3.4" fill="#c7bda6"/>
<circle cx="600.9" cy="426.0" r="3.4" fill="#c7bda6"/>
<circle cx="624.0" cy="426.0" r="3.4" fill="#c7bda6"/>
<circle cx="92.0" cy="448.0" r="3.4" fill="#c7bda6"/>
<circle cx="115.1" cy="448.0" r="3.4" fill="#c7bda6"/>
<circle cx="138.3" cy="448.0" r="3.4" fill="#c7bda6"/>
<circle cx="161.4" cy="448.0" r="3.4" fill="#c7bda6"/>
<circle cx="184.5" cy="448.0" r="3.4" fill="#c7bda6"/>
<circle cx="207.7" cy="448.0" r="3.4" fill="#c7bda6"/>
<circle cx="230.8" cy="448.0" r="3.4" fill="#c7bda6"/>
<circle cx="253.9" cy="448.0" r="3.4" fill="#c7bda6"/>
<circle cx="277.0" cy="448.0" r="3.4" fill="#c7bda6"/>
<circle cx="300.2" cy="448.0" r="3.4" fill="#c7bda6"/>
<circle cx="323.3" cy="448.0" r="3.4" fill="#c7bda6"/>
<circle cx="346.4" cy="448.0" r="3.4" fill="#c7bda6"/>
<circle cx="369.6" cy="448.0" r="3.4" fill="#c7bda6"/>
<circle cx="392.7" cy="448.0" r="3.4" fill="#c7bda6"/>
<circle cx="415.8" cy="448.0" r="3.4" fill="#c7bda6"/>
<circle cx="439.0" cy="448.0" r="3.4" fill="#c7bda6"/>
<circle cx="462.1" cy="448.0" r="3.4" fill="#c7bda6"/>
<circle cx="485.2" cy="448.0" r="3.4" fill="#c7bda6"/>
<circle cx="508.3" cy="448.0" r="3.4" fill="#c7bda6"/>
<circle cx="531.5" cy="448.0" r="3.4" fill="#c7bda6"/>
<circle cx="554.6" cy="448.0" r="3.4" fill="#c7bda6"/>
<circle cx="577.7" cy="448.0" r="3.4" fill="#c7bda6"/>
<circle cx="600.9" cy="448.0" r="3.4" fill="#c7bda6"/>
<circle cx="624.0" cy="448.0" r="3.4" fill="#c7bda6"/>
<circle cx="92.0" cy="470.0" r="3.4" fill="#c7bda6"/>
<circle cx="115.1" cy="470.0" r="3.4" fill="#c7bda6"/>
<circle cx="138.3" cy="470.0" r="3.4" fill="#c7bda6"/>
<circle cx="161.4" cy="470.0" r="3.4" fill="#c7bda6"/>
<circle cx="184.5" cy="470.0" r="3.4" fill="#c7bda6"/>
<circle cx="207.7" cy="470.0" r="3.4" fill="#c7bda6"/>
<circle cx="230.8" cy="470.0" r="3.4" fill="#c7bda6"/>
<circle cx="253.9" cy="470.0" r="3.4" fill="#c7bda6"/>
<circle cx="277.0" cy="470.0" r="3.4" fill="#c7bda6"/>
<circle cx="300.2" cy="470.0" r="3.4" fill="#c7bda6"/>
<circle cx="323.3" cy="470.0" r="3.4" fill="#c7bda6"/>
<circle cx="346.4" cy="470.0" r="3.4" fill="#c7bda6"/>
<circle cx="369.6" cy="470.0" r="3.4" fill="#c7bda6"/>
<circle cx="392.7" cy="470.0" r="3.4" fill="#c7bda6"/>
<circle cx="415.8" cy="470.0" r="3.4" fill="#c7bda6"/>
<circle cx="439.0" cy="470.0" r="3.4" fill="#c7bda6"/>
<circle cx="462.1" cy="470.0" r="3.4" fill="#c7bda6"/>
<circle cx="485.2" cy="470.0" r="3.4" fill="#c7bda6"/>
<circle cx="508.3" cy="470.0" r="3.4" fill="#c7bda6"/>
<circle cx="531.5" cy="470.0" r="3.4" fill="#c7bda6"/>
<circle cx="554.6" cy="470.0" r="3.4" fill="#c7bda6"/>
<circle cx="577.7" cy="470.0" r="3.4" fill="#c7bda6"/>
<circle cx="600.9" cy="470.0" r="3.4" fill="#c7bda6"/>
<circle cx="624.0" cy="470.0" r="3.4" fill="#c7bda6"/>
<circle cx="92.0" cy="492.0" r="3.4" fill="#c7bda6"/>
<circle cx="115.1" cy="492.0" r="3.4" fill="#c7bda6"/>
<circle cx="138.3" cy="492.0" r="3.4" fill="#c7bda6"/>
<circle cx="161.4" cy="492.0" r="3.4" fill="#c7bda6"/>
<circle cx="184.5" cy="492.0" r="3.4" fill="#c7bda6"/>
<circle cx="207.7" cy="492.0" r="3.4" fill="#c7bda6"/>
<circle cx="230.8" cy="492.0" r="3.4" fill="#c7bda6"/>
<circle cx="253.9" cy="492.0" r="3.4" fill="#c7bda6"/>
<circle cx="277.0" cy="492.0" r="3.4" fill="#c7bda6"/>
<circle cx="300.2" cy="492.0" r="3.4" fill="#c7bda6"/>
<circle cx="323.3" cy="492.0" r="3.4" fill="#c7bda6"/>
<circle cx="346.4" cy="492.0" r="3.4" fill="#c7bda6"/>
<circle cx="369.6" cy="492.0" r="3.4" fill="#c7bda6"/>
<circle cx="392.7" cy="492.0" r="3.4" fill="#c7bda6"/>
<circle cx="415.8" cy="492.0" r="3.4" fill="#c7bda6"/>
<circle cx="439.0" cy="492.0" r="3.4" fill="#c7bda6"/>
<circle cx="462.1" cy="492.0" r="3.4" fill="#c7bda6"/>
<circle cx="485.2" cy="492.0" r="3.4" fill="#c7bda6"/>
<circle cx="508.3" cy="492.0" r="3.4" fill="#c7bda6"/>
<circle cx="531.5" cy="492.0" r="3.4" fill="#c7bda6"/>
<circle cx="554.6" cy="492.0" r="3.4" fill="#c7bda6"/>
<circle cx="577.7" cy="492.0" r="3.4" fill="#c7bda6"/>
<circle cx="600.9" cy="492.0" r="3.4" fill="#c7bda6"/>
<circle cx="624.0" cy="492.0" r="3.4" fill="#c7bda6"/>
<line x1="66" y1="514" x2="650" y2="514" stroke="#2b2f36" stroke-width="2.5" opacity="0.55"/>
<text x="56" y="519" font-size="16" font-weight="700" fill="#2b2f36">−</text>
<text x="660" y="519" font-size="16" font-weight="700" fill="#2b2f36" text-anchor="end">−</text>
<circle cx="92.0" cy="530.0" r="3.4" fill="#c7bda6"/>
<circle cx="115.1" cy="530.0" r="3.4" fill="#c7bda6"/>
<circle cx="138.3" cy="530.0" r="3.4" fill="#c7bda6"/>
<circle cx="161.4" cy="530.0" r="3.4" fill="#c7bda6"/>
<circle cx="184.5" cy="530.0" r="3.4" fill="#c7bda6"/>
<circle cx="207.7" cy="530.0" r="3.4" fill="#c7bda6"/>
<circle cx="230.8" cy="530.0" r="3.4" fill="#c7bda6"/>
<circle cx="253.9" cy="530.0" r="3.4" fill="#c7bda6"/>
<circle cx="277.0" cy="530.0" r="3.4" fill="#c7bda6"/>
<circle cx="300.2" cy="530.0" r="3.4" fill="#c7bda6"/>
<circle cx="323.3" cy="530.0" r="3.4" fill="#c7bda6"/>
<circle cx="346.4" cy="530.0" r="3.4" fill="#c7bda6"/>
<circle cx="369.6" cy="530.0" r="3.4" fill="#c7bda6"/>
<circle cx="392.7" cy="530.0" r="3.4" fill="#c7bda6"/>
<circle cx="415.8" cy="530.0" r="3.4" fill="#c7bda6"/>
<circle cx="439.0" cy="530.0" r="3.4" fill="#c7bda6"/>
<circle cx="462.1" cy="530.0" r="3.4" fill="#c7bda6"/>
<circle cx="485.2" cy="530.0" r="3.4" fill="#c7bda6"/>
<circle cx="508.3" cy="530.0" r="3.4" fill="#c7bda6"/>
<circle cx="531.5" cy="530.0" r="3.4" fill="#c7bda6"/>
<circle cx="554.6" cy="530.0" r="3.4" fill="#c7bda6"/>
<circle cx="577.7" cy="530.0" r="3.4" fill="#c7bda6"/>
<circle cx="600.9" cy="530.0" r="3.4" fill="#c7bda6"/>
<circle cx="624.0" cy="530.0" r="3.4" fill="#c7bda6"/>
<line x1="66" y1="550" x2="650" y2="550" stroke="#e5484d" stroke-width="2.5" opacity="0.55"/>
<text x="56" y="555" font-size="16" font-weight="700" fill="#e5484d">+</text>
<text x="660" y="555" font-size="16" font-weight="700" fill="#e5484d" text-anchor="end">+</text>
<circle cx="92.0" cy="566.0" r="3.4" fill="#c7bda6"/>
<circle cx="115.1" cy="566.0" r="3.4" fill="#c7bda6"/>
<circle cx="138.3" cy="566.0" r="3.4" fill="#c7bda6"/>
<circle cx="161.4" cy="566.0" r="3.4" fill="#c7bda6"/>
<circle cx="184.5" cy="566.0" r="3.4" fill="#c7bda6"/>
<circle cx="207.7" cy="566.0" r="3.4" fill="#c7bda6"/>
<circle cx="230.8" cy="566.0" r="3.4" fill="#c7bda6"/>
<circle cx="253.9" cy="566.0" r="3.4" fill="#c7bda6"/>
<circle cx="277.0" cy="566.0" r="3.4" fill="#c7bda6"/>
<circle cx="300.2" cy="566.0" r="3.4" fill="#c7bda6"/>
<circle cx="323.3" cy="566.0" r="3.4" fill="#c7bda6"/>
<circle cx="346.4" cy="566.0" r="3.4" fill="#c7bda6"/>
<circle cx="369.6" cy="566.0" r="3.4" fill="#c7bda6"/>
<circle cx="392.7" cy="566.0" r="3.4" fill="#c7bda6"/>
<circle cx="415.8" cy="566.0" r="3.4" fill="#c7bda6"/>
<circle cx="439.0" cy="566.0" r="3.4" fill="#c7bda6"/>
<circle cx="462.1" cy="566.0" r="3.4" fill="#c7bda6"/>
<circle cx="485.2" cy="566.0" r="3.4" fill="#c7bda6"/>
<circle cx="508.3" cy="566.0" r="3.4" fill="#c7bda6"/>
<circle cx="531.5" cy="566.0" r="3.4" fill="#c7bda6"/>
<circle cx="554.6" cy="566.0" r="3.4" fill="#c7bda6"/>
<circle cx="577.7" cy="566.0" r="3.4" fill="#c7bda6"/>
<circle cx="600.9" cy="566.0" r="3.4" fill="#c7bda6"/>
<circle cx="624.0" cy="566.0" r="3.4" fill="#c7bda6"/>
<rect x="149.4" y="276.0" width="417.2" height="202.0" rx="8" fill="#161a22" stroke="#333a47" stroke-width="1.5"/>
<text x="165.4" y="382.0" font-size="15" font-weight="700" fill="#8b93a3" transform="rotate(0)">ESP32</text>
<rect x="560.6" y="361.0" width="16" height="32" rx="3" fill="#20242d" stroke="#333a47" stroke-width="1.5"/>
<text x="584.6" y="357.0" font-size="13" fill="#6b7280">USB-C</text>
<text x="584.6" y="373.0" font-size="13" fill="#6b7280">5V power in</text>
<rect x="500.3" y="474.0" width="16" height="10" rx="2" fill="#d9b44a"/>
<circle cx="508.3" cy="470.0" r="4" fill="#e5484d"/>
<text x="508.3" y="469.0" font-size="12.5" font-weight="700" fill="#e8ecf4" text-anchor="middle">5V</text>
<rect x="431.0" y="474.0" width="16" height="10" rx="2" fill="#d9b44a"/>
<circle cx="439.0" cy="470.0" r="4" fill="#1f9d55"/>
<text x="439.0" y="469.0" font-size="12.5" font-weight="700" fill="#e8ecf4" text-anchor="middle">13</text>
<rect x="361.6" y="474.0" width="16" height="10" rx="2" fill="#d9b44a"/>
<circle cx="369.6" cy="470.0" r="4" fill="#2b2f36"/>
<text x="369.6" y="469.0" font-size="12.5" font-weight="700" fill="#e8ecf4" text-anchor="middle">GND</text>
<line x1="230.8" y1="426.0" x2="244.8" y2="426.0" stroke="#d9b44a" stroke-width="3"/>
<line x1="286.2" y1="426.0" x2="300.2" y2="426.0" stroke="#d9b44a" stroke-width="3"/>
<rect x="244.8" y="417.0" width="41.4" height="18" rx="4" fill="#d9c49a" stroke="#b89b63" stroke-width="1"/>
<rect x="252.8" y="417.0" width="3.4" height="18" fill="#e5484d"/>
<rect x="260.8" y="417.0" width="3.4" height="18" fill="#111"/>
<rect x="268.8" y="417.0" width="3.4" height="18" fill="#8b5a2b"/>
<rect x="276.8" y="417.0" width="3.4" height="18" fill="#d4af37"/>
<text x="265.5" y="410.0" font-size="12.5" font-weight="700" fill="#20232a" text-anchor="middle">330 Ω</text>
<ellipse cx="68.0" cy="552.0" rx="15" ry="5" fill="#3a3f49"/>
<rect x="53.0" y="552.0" width="30" height="44" fill="#22262e" stroke="#3a3f49" stroke-width="1"/>
<ellipse cx="68.0" cy="596.0" rx="15" ry="5" fill="#191c22"/>
<rect x="76.0" y="552.0" width="7" height="44" fill="#aeb4c0" opacity="0.9"/>
<text x="79.5" y="578.0" font-size="13" font-weight="800" fill="#2b2f36" text-anchor="middle">−</text>
<text x="62.0" y="578.0" font-size="13" font-weight="800" fill="#fff" text-anchor="middle">+</text>
<text x="68.0" y="616.0" font-size="12.5" font-weight="700" fill="#20232a" text-anchor="middle">1000 µF</text>
<path d="M 62.0 552.0 L 62.0 566.0 L 138.3 566.0" fill="none" stroke="#e5484d" stroke-width="2.5"/>
<path d="M 79.0 596.0 L 79.0 530.0 L 115.1 530.0" fill="none" stroke="#2b2f36" stroke-width="2.5"/>
<path d="M 508.3 476.0 L 508.3 552.0 L 531.5 566.0" fill="none" stroke="#e5484d" stroke-width="3.2" stroke-linecap="round" stroke-linejoin="round"/>
<circle cx="508.3" cy="476.0" r="3.6" fill="#e5484d"/>
<circle cx="531.5" cy="566.0" r="3.6" fill="#e5484d"/>
<path d="M 369.6 476.0 L 369.6 530.0" fill="none" stroke="#2b2f36" stroke-width="3.2" stroke-linecap="round" stroke-linejoin="round"/>
<circle cx="369.6" cy="476.0" r="3.6" fill="#2b2f36"/>
<circle cx="369.6" cy="530.0" r="3.6" fill="#2b2f36"/>
<path d="M 439.0 476.0 L 439.0 398.0 L 230.8 412.0 L 230.8 426.0" fill="none" stroke="#1f9d55" stroke-width="3.2" stroke-linecap="round" stroke-linejoin="round"/>
<circle cx="439.0" cy="476.0" r="3.6" fill="#1f9d55"/>
<circle cx="230.8" cy="426.0" r="3.6" fill="#1f9d55"/>
<rect x="770" y="288" width="288" height="78" rx="8" fill="#101317" stroke="#2a2f38" stroke-width="2"/>
<rect x="783" y="306" width="34" height="42" rx="4" fill="#f2f4f8"/>
<rect x="793" y="318" width="14" height="14" rx="2" fill="#c9ccd4"/>
<rect x="837" y="306" width="34" height="42" rx="4" fill="#f2f4f8"/>
<rect x="847" y="318" width="14" height="14" rx="2" fill="#c9ccd4"/>
<rect x="891" y="306" width="34" height="42" rx="4" fill="#f2f4f8"/>
<rect x="901" y="318" width="14" height="14" rx="2" fill="#c9ccd4"/>
<rect x="945" y="306" width="34" height="42" rx="4" fill="#f2f4f8"/>
<rect x="955" y="318" width="14" height="14" rx="2" fill="#c9ccd4"/>
<rect x="999" y="306" width="34" height="42" rx="4" fill="#f2f4f8"/>
<rect x="1009" y="318" width="14" height="14" rx="2" fill="#c9ccd4"/>
<text x="914.0" y="274" font-size="16" font-weight="700" fill="#20232a" text-anchor="middle">WS2812B strip</text>
<text x="914.0" y="392" font-size="13" fill="#6b7280" text-anchor="middle">JST pigtail end · only first 16 LEDs used</text>
<path d="M 770.0 306.0 L 736.0 306.0 L 736.0 188.0 L 600.9 188.0" fill="none" stroke="#e5484d" stroke-width="3.2" stroke-linecap="round" stroke-linejoin="round"/>
<circle cx="770.0" cy="306.0" r="3.6" fill="#e5484d"/>
<circle cx="600.9" cy="188.0" r="3.6" fill="#e5484d"/>
<path d="M 770.0 327.0 L 718.0 327.0 L 718.0 224.0 L 600.9 224.0" fill="none" stroke="#2b2f36" stroke-width="3.2" stroke-linecap="round" stroke-linejoin="round"/>
<circle cx="770.0" cy="327.0" r="3.6" fill="#2b2f36"/>
<circle cx="600.9" cy="224.0" r="3.6" fill="#2b2f36"/>
<path d="M 770.0 348.0 L 700.0 348.0 L 700.0 500.0 L 300.2 500.0 L 300.2 426.0" fill="none" stroke="#1f9d55" stroke-width="3.2" stroke-linecap="round" stroke-linejoin="round"/>
<circle cx="770.0" cy="348.0" r="3.6" fill="#1f9d55"/>
<circle cx="300.2" cy="426.0" r="3.6" fill="#1f9d55"/>
<text x="736" y="300" font-size="11.5" font-weight="700" fill="#e5484d" text-anchor="middle">5V</text>
<text x="718" y="321" font-size="11.5" font-weight="700" fill="#2b2f36" text-anchor="middle">GND</text>
<text x="700" y="342" font-size="11.5" font-weight="700" fill="#1f9d55" text-anchor="middle">DIN</text>
<rect x="748" y="430" width="324" height="180" rx="12" fill="#faf8f3" stroke="#d9cfba" stroke-width="1.5"/>
<text x="766" y="460" font-size="16" font-weight="700" fill="#20232a">Connections</text>
<line x1="766" y1="484" x2="792" y2="484" stroke="#e5484d" stroke-width="4" stroke-linecap="round"/>
<text x="802" y="488" font-size="13.5" fill="#20232a">ESP32 5V  →  + rail  →  strip red (5V)</text>
<line x1="766" y1="510" x2="792" y2="510" stroke="#2b2f36" stroke-width="4" stroke-linecap="round"/>
<text x="802" y="514" font-size="13.5" fill="#20232a">ESP32 GND  →  − rail  →  strip white (GND)</text>
<line x1="766" y1="536" x2="792" y2="536" stroke="#1f9d55" stroke-width="4" stroke-linecap="round"/>
<text x="802" y="540" font-size="13.5" fill="#20232a">ESP32 GPIO13  →  330 Ω  →  strip green (DIN)</text>
<text x="766" y="580" font-size="12.5" fill="#6b7280">Cap 1000 µF sits across the rails near the strip;</text>
<text x="766" y="598" font-size="12.5" fill="#6b7280">stripe (−) to GND. Clip the U.FL antenna before power-on.</text>
</svg>